HIERARCHY
ROOT mixamorig:Hips
{
	OFFSET 0.000000 85.230415 0.000000
	CHANNELS 6 Xposition Yposition Zposition Zrotation Yrotation Xrotation 
	JOINT mixamorig:Spine
	{
		OFFSET -0.000014 7.868595 1.166200
		CHANNELS 3 Zrotation Yrotation Xrotation
		JOINT mixamorig:Spine1
		{
			OFFSET 0.000000 8.307600 0.241180
			CHANNELS 3 Zrotation Yrotation Xrotation
			JOINT mixamorig:Spine2
			{
				OFFSET 0.000000 7.469998 -0.455969
				CHANNELS 3 Zrotation Yrotation Xrotation
				JOINT mixamorig:Neck
				{
					OFFSET 0.000000 21.623920 -3.130763
					CHANNELS 3 Zrotation Yrotation Xrotation
					JOINT mixamorig:Head
					{
						OFFSET 0.000000 8.979096 1.007916
						CHANNELS 3 Zrotation Yrotation Xrotation
						JOINT mixamorig:HeadTop_End
						{
							OFFSET 0.000000 36.978806 0.701265
							CHANNELS 3 Zrotation Yrotation Xrotation
							End Site
							{
								OFFSET 0.000000 0.000000 0.000000
							}
						}
						JOINT mixamorig:HairB
						{
							OFFSET -6.414200 28.771164 21.708258
							CHANNELS 3 Zrotation Yrotation Xrotation
							End Site
							{
								OFFSET 0.000000 0.000000 0.000000
							}
						}
						JOINT mixamorig:HairA
						{
							OFFSET -11.484100 27.496475 17.498951
							CHANNELS 3 Zrotation Yrotation Xrotation
							End Site
							{
								OFFSET 0.000000 0.000000 0.000000
							}
						}
						JOINT mixamorig:Bow_Left
						{
							OFFSET -6.807600 33.586777 20.752766
							CHANNELS 3 Zrotation Yrotation Xrotation
							End Site
							{
								OFFSET 0.000000 0.000000 0.000000
							}
						}
						JOINT mixamorig:Bow_Right
						{
							OFFSET -11.133100 30.313980 19.500957
							CHANNELS 3 Zrotation Yrotation Xrotation
							End Site
							{
								OFFSET 0.000000 0.000000 0.000000
							}
						}
						JOINT mixamorig:HairC
						{
							OFFSET 2.525900 31.959274 20.608562
							CHANNELS 3 Zrotation Yrotation Xrotation
							JOINT mixamorig:HairC1
							{
								OFFSET 1.733735 -3.232010 3.632423
								CHANNELS 3 Zrotation Yrotation Xrotation
								End Site
								{
									OFFSET 0.000000 0.000000 0.000000
								}
							}
						}
						JOINT mixamorig:Ponytail
						{
							OFFSET -0.181100 31.348724 -13.427048
							CHANNELS 3 Zrotation Yrotation Xrotation
							JOINT mixamorig:Ponytail1
							{
								OFFSET -0.746532 2.567368 -7.327436
								CHANNELS 3 Zrotation Yrotation Xrotation
								JOINT mixamorig:Ponytail2
								{
									OFFSET -0.357839 -10.803711 -7.221615
									CHANNELS 3 Zrotation Yrotation Xrotation
									End Site
									{
										OFFSET 0.000000 0.000000 0.000000
									}
								}
							}
						}
					}
				}
				JOINT mixamorig:LeftShoulder
				{
					OFFSET 4.215800 16.566912 -4.092373
					CHANNELS 3 Zrotation Yrotation Xrotation
					JOINT mixamorig:LeftArm
					{
						OFFSET 8.521194 -0.267406 -1.717659
						CHANNELS 3 Zrotation Yrotation Xrotation
						JOINT mixamorig:LeftForeArm
						{
							OFFSET 21.262897 0.000002 -0.000001
							CHANNELS 3 Zrotation Yrotation Xrotation
							JOINT mixamorig:LeftHand
							{
								OFFSET 21.154701 -0.000003 -0.000001
								CHANNELS 3 Zrotation Yrotation Xrotation
								JOINT mixamorig:LeftHandThumb1
								{
									OFFSET 4.109039 -1.962593 2.610258
									CHANNELS 3 Zrotation Yrotation Xrotation
									JOINT mixamorig:LeftHandThumb2
									{
										OFFSET 3.101486 -1.790642 1.790644
										CHANNELS 3 Zrotation Yrotation Xrotation
										JOINT mixamorig:LeftHandThumb3
										{
											OFFSET 3.038742 -1.754417 1.754420
											CHANNELS 3 Zrotation Yrotation Xrotation
											JOINT mixamorig:LeftHandThumb4
											{
												OFFSET 2.539978 -1.466461 1.466458
												CHANNELS 3 Zrotation Yrotation Xrotation
												End Site
												{
													OFFSET 0.000000 0.000000 0.000000
												}
											}
										}
									}
								}
								JOINT mixamorig:LeftHandIndex1
								{
									OFFSET 11.845871 -0.683540 3.729384
									CHANNELS 3 Zrotation Yrotation Xrotation
									JOINT mixamorig:LeftHandIndex2
									{
										OFFSET 3.283096 0.000000 -0.000000
										CHANNELS 3 Zrotation Yrotation Xrotation
										JOINT mixamorig:LeftHandIndex3
										{
											OFFSET 3.323807 0.000000 -0.000000
											CHANNELS 3 Zrotation Yrotation Xrotation
											JOINT mixamorig:LeftHandIndex4
											{
												OFFSET 3.020599 0.000000 -0.000000
												CHANNELS 3 Zrotation Yrotation Xrotation
												End Site
												{
													OFFSET 0.000000 0.000000 0.000000
												}
											}
										}
									}
								}
								JOINT mixamorig:LeftHandMiddle1
								{
									OFFSET 12.082413 0.000000 -0.000000
									CHANNELS 3 Zrotation Yrotation Xrotation
									JOINT mixamorig:LeftHandMiddle2
									{
										OFFSET 3.410500 0.000000 0.000000
										CHANNELS 3 Zrotation Yrotation Xrotation
										JOINT mixamorig:LeftHandMiddle3
										{
											OFFSET 3.312202 0.000000 0.000000
											CHANNELS 3 Zrotation Yrotation Xrotation
											JOINT mixamorig:LeftHandMiddle4
											{
												OFFSET 3.438499 0.000000 0.000000
												CHANNELS 3 Zrotation Yrotation Xrotation
												End Site
												{
													OFFSET 0.000000 0.000000 0.000000
												}
											}
										}
									}
								}
								JOINT mixamorig:LeftHandRing1
								{
									OFFSET 12.470573 0.087585 -2.973213
									CHANNELS 3 Zrotation Yrotation Xrotation
									JOINT mixamorig:LeftHandRing2
									{
										OFFSET 3.053307 0.000000 0.000000
										CHANNELS 3 Zrotation Yrotation Xrotation
										JOINT mixamorig:LeftHandRing3
										{
											OFFSET 3.295898 0.000000 0.000000
											CHANNELS 3 Zrotation Yrotation Xrotation
											JOINT mixamorig:LeftHandRing4
											{
												OFFSET 3.727997 0.000000 0.000000
												CHANNELS 3 Zrotation Yrotation Xrotation
												End Site
												{
													OFFSET 0.000000 0.000000 0.000000
												}
											}
										}
									}
								}
								JOINT mixamorig:LeftHandPinky1
								{
									OFFSET 11.691048 -0.779549 -5.760270
									CHANNELS 3 Zrotation Yrotation Xrotation
									JOINT mixamorig:LeftHandPinky2
									{
										OFFSET 2.861702 0.000000 0.000000
										CHANNELS 3 Zrotation Yrotation Xrotation
										JOINT mixamorig:LeftHandPinky3
										{
											OFFSET 2.863403 0.000000 0.000000
											CHANNELS 3 Zrotation Yrotation Xrotation
											JOINT mixamorig:LeftHandPinky4
											{
												OFFSET 2.545403 0.000000 0.000000
												CHANNELS 3 Zrotation Yrotation Xrotation
												End Site
												{
													OFFSET 0.000000 0.000000 0.000000
												}
											}
										}
									}
								}
							}
							JOINT mixamorig:LeftWristTwist
							{
								OFFSET 10.565701 0.000000 -0.000000
								CHANNELS 3 Zrotation Yrotation Xrotation
								End Site
								{
									OFFSET 0.000000 0.000000 0.000000
								}
							}
						}
						JOINT mixamorig:LeftUpArmTwist
						{
							OFFSET 10.646198 0.000000 -0.000000
							CHANNELS 3 Zrotation Yrotation Xrotation
							End Site
							{
								OFFSET 0.000000 0.000000 0.000000
							}
						}
					}
				}
				JOINT mixamorig:Right_Breast
				{
					OFFSET -2.562200 12.208893 5.100423
					CHANNELS 3 Zrotation Yrotation Xrotation
					End Site
					{
						OFFSET 0.000000 0.000000 0.000000
					}
				}
				JOINT mixamorig:Left_Breast
				{
					OFFSET 2.562200 12.208893 5.100423
					CHANNELS 3 Zrotation Yrotation Xrotation
					End Site
					{
						OFFSET 0.000000 0.000000 0.000000
					}
				}
				JOINT mixamorig:RightShoulder
				{
					OFFSET -4.215800 16.567416 -4.092373
					CHANNELS 3 Zrotation Yrotation Xrotation
					JOINT mixamorig:RightArm
					{
						OFFSET -8.521288 -0.267902 -1.717664
						CHANNELS 3 Zrotation Yrotation Xrotation
						JOINT mixamorig:RightForeArm
						{
							OFFSET -21.262793 -0.000002 0.000001
							CHANNELS 3 Zrotation Yrotation Xrotation
							JOINT mixamorig:RightHand
							{
								OFFSET -21.154800 0.000000 -0.000001
								CHANNELS 3 Zrotation Yrotation Xrotation
								JOINT mixamorig:RightHandThumb1
								{
									OFFSET -4.108955 -1.962654 2.610195
									CHANNELS 3 Zrotation Yrotation Xrotation
									JOINT mixamorig:RightHandThumb2
									{
										OFFSET -3.101406 -1.790596 1.790599
										CHANNELS 3 Zrotation Yrotation Xrotation
										JOINT mixamorig:RightHandThumb3
										{
											OFFSET -3.038822 -1.754463 1.754464
											CHANNELS 3 Zrotation Yrotation Xrotation
											JOINT mixamorig:RightHandThumb4
											{
												OFFSET -2.539749 -1.466324 1.466325
												CHANNELS 3 Zrotation Yrotation Xrotation
												End Site
												{
													OFFSET 0.000000 0.000000 0.000000
												}
											}
										}
									}
								}
								JOINT mixamorig:RightHandIndex1
								{
									OFFSET -11.845840 -0.684052 3.729363
									CHANNELS 3 Zrotation Yrotation Xrotation
									JOINT mixamorig:RightHandIndex2
									{
										OFFSET -3.283096 0.000000 -0.000000
										CHANNELS 3 Zrotation Yrotation Xrotation
										JOINT mixamorig:RightHandIndex3
										{
											OFFSET -3.323807 0.000000 -0.000000
											CHANNELS 3 Zrotation Yrotation Xrotation
											JOINT mixamorig:RightHandIndex4
											{
												OFFSET -3.020599 0.000000 0.000000
												CHANNELS 3 Zrotation Yrotation Xrotation
												End Site
												{
													OFFSET 0.000000 0.000000 0.000000
												}
											}
										}
									}
								}
								JOINT mixamorig:RightHandMiddle1
								{
									OFFSET -12.082314 0.000000 0.000000
									CHANNELS 3 Zrotation Yrotation Xrotation
									JOINT mixamorig:RightHandMiddle2
									{
										OFFSET -3.410606 0.000000 0.000000
										CHANNELS 3 Zrotation Yrotation Xrotation
										JOINT mixamorig:RightHandMiddle3
										{
											OFFSET -3.312195 0.000000 0.000000
											CHANNELS 3 Zrotation Yrotation Xrotation
											JOINT mixamorig:RightHandMiddle4
											{
												OFFSET -3.438499 0.000000 0.000000
												CHANNELS 3 Zrotation Yrotation Xrotation
												End Site
												{
													OFFSET 0.000000 0.000000 0.000000
												}
											}
										}
									}
								}
								JOINT mixamorig:RightHandRing1
								{
									OFFSET -12.470573 0.087166 -2.973210
									CHANNELS 3 Zrotation Yrotation Xrotation
									JOINT mixamorig:RightHandRing2
									{
										OFFSET -3.053299 0.000000 0.000000
										CHANNELS 3 Zrotation Yrotation Xrotation
										JOINT mixamorig:RightHandRing3
										{
											OFFSET -3.295898 0.000000 0.000000
											CHANNELS 3 Zrotation Yrotation Xrotation
											JOINT mixamorig:RightHandRing4
											{
												OFFSET -3.727997 0.000000 0.000000
												CHANNELS 3 Zrotation Yrotation Xrotation
												End Site
												{
													OFFSET 0.000000 0.000000 0.000000
												}
											}
										}
									}
								}
								JOINT mixamorig:RightHandPinky1
								{
									OFFSET -11.691017 -0.779953 -5.760294
									CHANNELS 3 Zrotation Yrotation Xrotation
									JOINT mixamorig:RightHandPinky2
									{
										OFFSET -2.861603 0.000000 0.000000
										CHANNELS 3 Zrotation Yrotation Xrotation
										JOINT mixamorig:RightHandPinky3
										{
											OFFSET -2.863403 0.000000 0.000000
											CHANNELS 3 Zrotation Yrotation Xrotation
											JOINT mixamorig:RightHandPinky4
											{
												OFFSET -2.545303 0.000000 0.000000
												CHANNELS 3 Zrotation Yrotation Xrotation
												End Site
												{
													OFFSET 0.000000 0.000000 0.000000
												}
											}
										}
									}
								}
							}
							JOINT mixamorig:RightWristTwist
							{
								OFFSET -10.565701 0.000000 0.000000
								CHANNELS 3 Zrotation Yrotation Xrotation
								End Site
								{
									OFFSET 0.000000 0.000000 0.000000
								}
							}
						}
						JOINT mixamorig:RightUpArmTwist
						{
							OFFSET -10.646093 0.000000 0.000001
							CHANNELS 3 Zrotation Yrotation Xrotation
							End Site
							{
								OFFSET 0.000000 0.000000 0.000000
							}
						}
					}
				}
			}
		}
		JOINT mixamorig:Belly
		{
			OFFSET 0.000000 -0.538567 3.357786
			CHANNELS 3 Zrotation Yrotation Xrotation
			End Site
			{
				OFFSET 0.000000 0.000000 0.000000
			}
		}
	}
	JOINT mixamorig:LeftUpLeg
	{
		OFFSET 8.267015 -7.995487 -0.379100
		CHANNELS 3 Zrotation Yrotation Xrotation
		JOINT mixamorig:LeftLeg
		{
			OFFSET -0.000034 -32.369440 0.062314
			CHANNELS 3 Zrotation Yrotation Xrotation
			JOINT mixamorig:LeftFoot
			{
				OFFSET 0.000024 -35.030462 -2.208349
				CHANNELS 3 Zrotation Yrotation Xrotation
				JOINT mixamorig:LeftToeBase
				{
					OFFSET 1.232905 -9.835773 10.854839
					CHANNELS 3 Zrotation Yrotation Xrotation
					JOINT mixamorig:LeftToe_End
					{
						OFFSET 0.210410 0.001970 7.008142
						CHANNELS 3 Zrotation Yrotation Xrotation
						End Site
						{
							OFFSET 0.000000 0.000000 0.000000
						}
					}
				}
			}
		}
	}
	JOINT mixamorig:RightUpLeg
	{
		OFFSET -8.266986 -7.995517 -0.379100
		CHANNELS 3 Zrotation Yrotation Xrotation
		JOINT mixamorig:RightLeg
		{
			OFFSET 0.000002 -32.369437 0.062314
			CHANNELS 3 Zrotation Yrotation Xrotation
			JOINT mixamorig:RightFoot
			{
				OFFSET 0.000001 -35.030467 -2.208349
				CHANNELS 3 Zrotation Yrotation Xrotation
				JOINT mixamorig:RightToeBase
				{
					OFFSET -1.232895 -9.835700 10.854908
					CHANNELS 3 Zrotation Yrotation Xrotation
					JOINT mixamorig:RightToe_End
					{
						OFFSET -0.214257 0.001952 7.007725
						CHANNELS 3 Zrotation Yrotation Xrotation
						End Site
						{
							OFFSET 0.000000 0.000000 0.000000
						}
					}
				}
			}
		}
	}
	JOINT mixamorig:SkirtA
	{
		OFFSET 11.243096 1.931320 -10.868500
		CHANNELS 3 Zrotation Yrotation Xrotation
		JOINT mixamorig:SkirtA1
		{
			OFFSET 2.094878 -7.760521 -3.754759
			CHANNELS 3 Zrotation Yrotation Xrotation
			End Site
			{
				OFFSET 0.000000 0.000000 0.000000
			}
		}
	}
	JOINT mixamorig:SkirtB
	{
		OFFSET -0.000008 4.335800 -15.692000
		CHANNELS 3 Zrotation Yrotation Xrotation
		JOINT mixamorig:SkirtB1
		{
			OFFSET 0.000000 -9.729668 -3.399943
			CHANNELS 3 Zrotation Yrotation Xrotation
			End Site
			{
				OFFSET 0.000000 0.000000 0.000000
			}
		}
	}
	JOINT mixamorig:SkirtC
	{
		OFFSET -11.243104 1.931381 -10.868500
		CHANNELS 3 Zrotation Yrotation Xrotation
		JOINT mixamorig:SkirtC1
		{
			OFFSET -1.996108 -7.801628 -3.723248
			CHANNELS 3 Zrotation Yrotation Xrotation
			End Site
			{
				OFFSET 0.000000 0.000000 0.000000
			}
		}
	}
}
MOTION
Frames: 4
Frame Time: 0.016667
0.684635 65.277618 1.831806 -7.522916 -3.274756 17.067609 -5.028732 15.138496 9.122348 0.734551 5.827900 2.968982 0.628577 6.305617 2.925171 4.719495 -0.917634 -0.935041 12.261866 -7.727859 -8.690798 0.000000 0.000000 0.000001 0.000000 0.000000 -0.000002 -0.000002 -0.000001 -0.000002 0.000005 -0.000005 -0.000002 -0.000006 0.000001 0.000002 -0.000002 -0.000001 0.000000 -0.000001 -0.000003 0.000002 -0.000000 -0.000001 0.000001 0.000000 0.000001 0.000006 0.000001 0.000001 0.000008 -13.425899 2.695067 1.439229 -47.069402 16.394004 -28.010894 0.101185 -11.001540 0.023172 16.489539 -23.456258 8.559913 3.867443 -6.350665 -5.862573 5.424715 27.126332 9.673511 10.280381 -12.293852 -12.083081 -0.000004 0.000002 0.000001 -12.462138 -6.324640 -0.505532 -16.342783 1.651679 -0.237172 -16.786218 1.695196 -0.250144 0.000001 0.000002 0.000000 -18.633573 -1.048918 -0.980509 -20.947910 2.098228 -0.387943 -22.997833 2.292754 -0.466473 0.000000 0.000000 -0.000001 -26.157516 3.285130 -1.580787 -23.874317 2.375010 -0.502163 -25.860493 2.559335 -0.587692 0.000000 0.000000 0.000004 -33.184620 3.771941 -2.190683 -29.888664 2.923321 -0.780404 -29.880859 2.922615 -0.780032 -0.000000 -0.000001 0.000001 -0.000000 -0.000001 0.000001 0.000001 0.000002 0.000002 0.000000 0.000000 0.000002 0.000000 0.000000 0.000002 -5.052153 13.428457 1.471205 -51.913556 58.960668 -60.763043 76.060736 86.232284 75.024611 -5.166829 22.619198 14.066915 -3.354384 27.011567 -15.159027 -17.227306 -43.205845 19.025897 -14.469877 1.254602 -7.605355 0.000000 0.000001 0.000001 13.849943 -4.785802 -0.633682 15.508042 -1.247749 -0.169903 15.503211 -1.247378 -0.169804 0.000001 -0.000001 -0.000000 32.839540 -5.909642 -1.939600 34.414022 -2.636042 -0.816489 36.402832 -2.767786 -0.910234 0.000000 0.000000 -0.000001 43.850757 -6.344237 -2.842325 42.368357 -3.142221 -1.218046 44.358483 -3.259700 -1.329181 -0.000000 0.000001 -0.000002 54.131647 -6.587979 -3.745779 51.592056 -3.652494 -1.765823 51.582647 -3.652021 -1.765231 0.000001 -0.000001 -0.000000 0.000000 0.000000 -0.000001 -0.000001 0.000000 0.000001 0.000000 0.000001 0.000000 1.610952 1.204996 -80.936756 8.234968 5.191495 51.563553 11.970820 23.136082 12.643500 0.000003 -0.000035 -4.486117 0.000000 0.000000 0.000000 6.143722 -13.878101 -0.103290 -4.492463 -16.286296 52.164876 18.333770 -3.930659 -31.396469 -0.000004 -0.000001 -42.282327 -0.000001 0.000000 0.000000 -0.000001 0.000001 -0.000006 0.000002 -0.000001 -0.000002 0.000000 0.000000 0.000000 0.000000 0.000000 -0.000002 0.000002 -0.000001 -0.000000 0.000001 -0.000001 -0.000000 
-0.225308 64.442368 1.966090 -6.046600 -2.838996 17.885834 -5.325608 14.321841 8.677988 -0.162833 5.990686 3.118015 -0.248244 6.459820 3.067756 4.496066 -0.990392 -0.797762 13.158397 -8.520382 -8.517766 0.000000 0.000000 0.000000 0.000000 0.000000 0.000000 0.000000 -0.000003 -0.000003 0.000000 0.000000 -0.000003 -0.000005 0.000002 0.000002 -0.000002 -0.000001 -0.000002 -0.000000 -0.000002 0.000003 -0.000001 -0.000002 -0.000002 -0.000000 0.000001 -0.000001 0.000001 0.000001 0.000003 -13.421331 2.881633 1.314682 -46.550138 16.094828 -28.117628 0.104003 -9.934855 0.041503 17.008244 -19.321582 6.729869 3.049758 -5.780862 -6.545859 5.245511 26.237090 9.462423 10.425894 -11.624350 -11.885546 0.000001 -0.000003 -0.000004 -11.807176 -5.663042 -0.470572 -15.669943 1.585459 -0.218186 -15.374013 1.556257 -0.210050 -0.000000 -0.000002 0.000002 -17.835072 -0.473133 -0.927934 -20.155277 2.022287 -0.359458 -21.413338 2.142639 -0.405153 -0.000001 -0.000001 0.000000 -25.171868 3.874861 -1.501120 -22.825712 2.276522 -0.459609 -23.891331 2.376613 -0.502873 -0.000000 0.000002 -0.000001 -32.079807 4.668177 -2.699418 -28.278882 2.779509 -0.700331 -28.031337 2.757217 -0.688369 -0.000003 0.000001 -0.000000 0.000000 0.000000 0.000002 -0.000000 0.000004 -0.000001 -0.000001 0.000001 -0.000003 -0.000001 0.000001 -0.000003 -6.518608 13.941846 1.160474 -50.379930 58.105005 -61.626126 20.417848 81.369377 19.271374 -4.725553 24.584621 13.647169 -3.395590 25.595613 -14.575197 -15.792119 -41.186467 17.662121 -14.435826 0.676636 -7.331492 0.000002 0.000004 0.000001 13.013044 -4.621408 -0.585467 14.375385 -1.158645 -0.146121 14.370887 -1.158290 -0.146033 -0.000001 0.000003 0.000002 30.609373 -5.695763 -1.767998 31.898104 -2.464813 -0.704507 33.741140 -2.590733 -0.785779 0.000000 0.000000 0.000001 40.811447 -6.136536 -2.585137 39.269329 -2.951725 -1.053273 41.113416 -3.066148 -1.150094 -0.000000 0.000002 -0.000001 50.337180 -6.411733 -3.407442 47.816170 -3.454361 -1.531720 47.807410 -3.453879 -1.531189 -0.000001 -0.000001 0.000003 0.000000 0.000002 0.000001 0.000000 0.000002 0.000001 -0.000001 -0.000000 -0.000004 0.935911 0.623616 -83.108630 8.453245 4.901503 53.591707 10.873580 23.349765 11.970764 -0.000003 -0.000002 -4.486108 0.000000 0.000002 0.000000 5.824717 -13.910081 -1.735325 -5.316353 -15.946326 55.020593 20.001414 -3.569875 -30.613914 -0.000021 0.000012 -44.426388 0.000000 0.000001 0.000000 0.000000 0.000000 0.000001 0.000000 0.000000 -0.000004 0.000000 0.000000 0.000002 0.000000 0.000000 -0.000003 0.000001 -0.000001 0.000002 -0.000001 -0.000001 -0.000002 
-1.317372 63.780930 2.524974 -4.387530 -1.860026 19.006491 -5.657980 13.408849 8.162392 -1.114342 6.072855 3.208343 -1.181547 6.530497 3.150197 4.019788 -1.047044 -0.508437 14.306222 -9.632699 -8.171983 0.000000 0.000000 0.000001 -0.000001 0.000000 0.000001 -0.000002 -0.000001 0.000000 0.000006 -0.000004 -0.000001 -0.000000 -0.000002 0.000008 -0.000001 -0.000001 -0.000005 -0.000002 -0.000004 0.000003 -0.000000 -0.000001 0.000003 0.000000 0.000000 0.000001 0.000001 0.000002 0.000004 -14.119219 3.086862 1.203752 -45.156399 15.758146 -27.976947 0.112938 -9.488807 0.064993 17.045448 -15.414110 5.088684 2.169721 -5.175276 -7.286350 5.059507 25.286651 9.240097 10.584164 -10.911174 -11.670513 -0.000003 0.000000 0.000000 -11.106208 -4.956301 -0.433753 -14.952170 1.514561 -0.198773 -13.864138 1.406653 -0.171039 -0.000001 -0.000002 0.000001 -16.981666 0.142523 -0.872228 -19.309110 1.940752 -0.330175 -19.720231 1.980414 -0.344255 -0.000002 -0.000001 -0.000003 -24.118474 4.505617 -1.416792 -21.706456 2.170541 -0.416199 -21.786797 2.178166 -0.419241 -0.000001 0.000002 -0.000002 -30.896597 5.627130 -3.249728 -26.560198 2.623538 -0.619326 -26.055782 2.577282 -0.596429 -0.000003 0.000002 -0.000000 0.000002 0.000002 0.000000 0.000002 0.000002 0.000002 -0.000001 -0.000000 -0.000004 -0.000001 -0.000000 -0.000004 -8.503271 14.528467 0.731069 -47.018691 56.808412 -60.704278 8.761339 74.527058 7.637429 -5.297520 26.392035 12.660976 -3.454285 24.081432 -13.958680 -14.373400 -39.000591 16.325925 -14.402210 0.058060 -7.040356 0.000000 0.000001 0.000000 12.118750 -4.444924 -0.534911 13.164722 -1.062908 -0.122663 13.160533 -1.062557 -0.122569 -0.000001 -0.000002 -0.000001 28.226903 -5.459874 -1.589503 29.209471 -2.276537 -0.593279 30.896671 -2.395305 -0.662037 -0.000000 -0.000001 0.000001 37.564747 -5.899703 -2.316867 35.957893 -2.738602 -0.888862 37.645838 -2.848432 -0.971136 -0.000001 0.000000 0.000002 46.283555 -6.198923 -3.052081 43.781817 -3.226066 -1.296560 43.773538 -3.225577 -1.296096 -0.000002 0.000002 -0.000002 0.000000 0.000000 0.000000 0.000001 0.000003 0.000000 0.000000 0.000001 0.000000 -0.162669 -0.023995 -85.259728 8.231124 4.294918 55.589958 9.692748 23.503818 10.891488 0.000001 -0.000013 -4.486102 0.000000 -0.000004 -0.000001 5.600898 -13.966490 -3.186396 -5.250682 -15.496299 56.567277 22.470069 -4.490596 -28.781742 -0.000007 0.000017 -47.897719 0.000001 0.000001 0.000001 0.000000 0.000000 0.000001 -0.000001 0.000000 0.000000 0.000000 0.000000 0.000003 0.000000 0.000000 0.000002 0.000003 -0.000001 0.000003 0.000000 0.000001 0.000000 
-2.540257 63.263695 3.431578 -2.644352 -0.599957 20.483380 -6.029864 12.438763 7.605917 -2.109100 6.144210 3.268007 -2.158958 6.589491 3.201169 3.420407 -1.097609 -0.121043 15.623017 -10.957741 -7.736572 0.000000 0.000000 -0.000002 0.000000 0.000000 -0.000002 -0.000003 0.000002 -0.000005 0.000006 -0.000003 -0.000003 -0.000002 -0.000001 0.000000 -0.000001 -0.000000 -0.000006 -0.000002 -0.000004 0.000001 -0.000000 -0.000001 0.000001 0.000000 0.000000 0.000001 0.000001 0.000001 0.000001 -15.385317 3.263982 1.119343 -43.058780 15.378178 -27.652376 0.120699 -9.503147 0.082066 16.716471 -11.629557 3.646730 1.238954 -4.543673 -8.072388 4.871021 24.293133 9.011731 10.752465 -10.168693 -11.442156 -0.000004 -0.000002 0.000002 -10.372178 -4.217630 -0.395773 -14.204354 1.440442 -0.179473 -12.284180 1.249037 -0.134423 0.000001 0.000002 0.000003 -16.089908 0.787262 -0.814529 -18.427367 1.855335 -0.300965 -17.950347 1.808954 -0.285742 -0.000002 -0.000000 -0.000001 -23.018627 5.167179 -1.329588 -20.539547 2.059152 -0.373123 -19.585885 1.967465 -0.339632 0.000001 0.000002 -0.000002 -29.663682 6.633406 -3.833942 -24.766235 2.458166 -0.539788 -23.992059 2.386031 -0.507060 0.000001 -0.000001 -0.000002 0.000001 0.000000 0.000000 0.000000 0.000001 0.000000 -0.000002 0.000001 0.000001 -0.000002 0.000001 0.000001 -10.619696 15.250565 0.254763 -42.721840 55.190144 -59.073613 5.060820 67.652704 3.981630 -6.521341 28.202679 11.428503 -3.533660 22.496865 -13.322159 -13.002733 -36.687910 15.046930 -14.370218 -0.589584 -6.737170 0.000000 -0.000001 0.000000 11.183653 -4.259498 -0.483090 11.898384 -0.962206 -0.100271 11.894541 -0.961926 -0.100212 -0.000001 -0.000001 -0.000001 25.736514 -5.205344 -1.408559 26.397773 -2.074248 -0.486528 27.922208 -2.184580 -0.543158 -0.000001 0.000000 0.000001 34.171263 -5.636014 -2.044447 32.495223 -2.505895 -0.730397 34.020161 -2.609559 -0.798440 0.000000 -0.000001 0.000000 42.046562 -5.949884 -2.689198 39.563662 -2.970204 -1.068478 39.556088 -2.969722 -1.068083 0.000001 0.000002 0.000001 0.000001 -0.000000 0.000001 0.000000 -0.000001 0.000000 -0.000000 0.000001 -0.000007 -1.505509 -0.659667 -87.429244 7.618654 3.475148 57.564630 8.437958 23.641172 9.481007 -0.000009 -0.000014 -4.486140 0.000000 0.000000 0.000000 5.468218 -14.051327 -4.575481 -4.709406 -15.118938 57.130402 25.139436 -6.327317 -26.165881 0.000007 -0.000008 -52.091906 0.000001 0.000001 0.000000 0.000000 -0.000001 -0.000001 0.000000 -0.000001 -0.000004 0.000000 0.000000 0.000002 0.000000 0.000000 -0.000002 0.000001 -0.000001 0.000003 -0.000001 -0.000001 0.000002 
